<svg xmlns="http://www.w3.org/2000/svg" viewBox="0 0 434.46 273.14"><title>banco_dos_quadrinhosAtivo 1</title><g id="Camada_2" data-name="Camada 2"><g id="Camada_1-2" data-name="Camada 1"><path d="M122.58,157.91q-.66,3.54-1.38,6.78t-1.44,6.54q-.72,3.3-1.44,6.9T116.94,186a12.94,12.94,0,0,0,2.79-2.61,25.75,25.75,0,0,0,2.55-3.81,43.67,43.67,0,0,0,2.19-4.56q1-2.4,1.71-4.68a39.72,39.72,0,0,0,1.11-4.26,18.07,18.07,0,0,0,.39-3.42,4.77,4.77,0,0,0-1.23-3.48A5.21,5.21,0,0,0,122.58,157.91Z"/><path d="M43.35,66.92A6.61,6.61,0,0,0,45,65.81a1.8,1.8,0,0,0,.63-1.32A2.05,2.05,0,0,0,45.12,63a4,4,0,0,0-1.41-.93,8,8,0,0,0-1.8-.51,10.5,10.5,0,0,0-1.65-.15h-.6q-.12.66-.27,1.56t-.33,1.89q-.18,1-.39,2t-.33,1.68A21.22,21.22,0,0,0,41,67.85,17.76,17.76,0,0,0,43.35,66.92Z"/><path d="M96.78,161.93,93.06,177l.87,0,1.32-.06,1.29-.06a5,5,0,0,0,.84-.09q0-.36.09-1.23t.18-2q.09-1.11.21-2.43t.24-2.58q.24-3.06.6-6.6l.36-5.22-.9.06Z"/><path d="M48.39,162.71a3.08,3.08,0,0,0-.84-1.23A2.21,2.21,0,0,0,46,161a6.82,6.82,0,0,0-3.54,1,10.91,10.91,0,0,0-2.91,2.55,18,18,0,0,0-2.25,3.6,35.53,35.53,0,0,0-1.65,4.08,24.35,24.35,0,0,0-1,4.05,23.29,23.29,0,0,0-.3,3.42,4.36,4.36,0,0,0,.24,1.38,4.19,4.19,0,0,0,.66,1.26,3.94,3.94,0,0,0,1,.93,2.52,2.52,0,0,0,1.35.39,6.86,6.86,0,0,0,3.84-1.14l-2.4-4q2.52-1.92,3.87-3l1.95-1.56q.72-.6.84-.72l1.32,1.5a34.89,34.89,0,0,0,1.26-4.56,21.61,21.61,0,0,0,.48-4.32,14.71,14.71,0,0,0-.09-1.56A6.35,6.35,0,0,0,48.39,162.71Z"/><path d="M40.62,84a6.66,6.66,0,0,0,2.22-1.68,3.78,3.78,0,0,0,.9-2.55,2.81,2.81,0,0,0-.57-1.8,4.71,4.71,0,0,0-1.44-1.2,6.67,6.67,0,0,0-1.89-.69,9.54,9.54,0,0,0-1.92-.21h-.51A1.86,1.86,0,0,0,37,76q-.24,1.44-.45,2.55t-.39,2.13q-.18,1-.39,2.13t-.45,2.61q1.14-.12,2.58-.42A12.13,12.13,0,0,0,40.62,84Z"/><path d="M37.11,135.38a25.75,25.75,0,0,0,2.55-3.81A43.67,43.67,0,0,0,41.85,127q1-2.4,1.71-4.68a39.72,39.72,0,0,0,1.11-4.26,18.07,18.07,0,0,0,.39-3.42,4.77,4.77,0,0,0-1.23-3.48A5.21,5.21,0,0,0,40,109.91q-.66,3.54-1.38,6.78t-1.44,6.54q-.72,3.3-1.44,6.9T34.32,138A12.94,12.94,0,0,0,37.11,135.38Z"/><path d="M155.52,161.87a3.66,3.66,0,0,0,1.08-2.22,1.36,1.36,0,0,0-.42-1.05A2.8,2.8,0,0,0,155,158a8.12,8.12,0,0,0-1.65-.27q-.9-.06-1.86-.06l-1.35,0-1.23,0L147,167.27a8.4,8.4,0,0,0,2.79-1,19.5,19.5,0,0,0,3.15-2A17.79,17.79,0,0,0,155.52,161.87Z"/><path d="M74.85,114.71a3.08,3.08,0,0,0-.84-1.23,2.21,2.21,0,0,0-1.53-.51,6.82,6.82,0,0,0-3.54,1A10.91,10.91,0,0,0,66,116.48a18,18,0,0,0-2.25,3.6,35.53,35.53,0,0,0-1.65,4.08,24.35,24.35,0,0,0-1,4.05,23.29,23.29,0,0,0-.3,3.42,4.36,4.36,0,0,0,.24,1.38,4.19,4.19,0,0,0,.66,1.26,3.94,3.94,0,0,0,1,.93,2.52,2.52,0,0,0,1.35.39,7,7,0,0,0,4.8-1.86,15.33,15.33,0,0,0,3.48-4.56,26.43,26.43,0,0,0,2.13-5.76,23.62,23.62,0,0,0,.75-5.58,14.71,14.71,0,0,0-.09-1.56A6.35,6.35,0,0,0,74.85,114.71Z"/><path d="M138.9,86.27a3.94,3.94,0,0,0,1,.93,2.52,2.52,0,0,0,1.35.39,7,7,0,0,0,4.8-1.86,15.33,15.33,0,0,0,3.48-4.56,26.43,26.43,0,0,0,2.13-5.76,23.62,23.62,0,0,0,.75-5.58,14.71,14.71,0,0,0-.09-1.56,6.35,6.35,0,0,0-.36-1.56,3.08,3.08,0,0,0-.84-1.23,2.21,2.21,0,0,0-1.53-.51,6.82,6.82,0,0,0-3.54,1,10.91,10.91,0,0,0-2.91,2.55,18,18,0,0,0-2.25,3.6,35.53,35.53,0,0,0-1.65,4.08,24.35,24.35,0,0,0-1,4,23.29,23.29,0,0,0-.3,3.42,4.36,4.36,0,0,0,.24,1.38A4.19,4.19,0,0,0,138.9,86.27Z"/><path d="M64.29,80.9l1.29-.06a5,5,0,0,0,.84-.09q0-.36.09-1.23t.18-2q.09-1.11.21-2.43t.24-2.58q.24-3.06.6-6.6l.36-5.22-.9.06-1.38,5.16L62.1,81,63,81Z"/><path d="M213.84,191.81l9.36-1.08q1.14-8,2.46-15.58a106.9,106.9,0,0,1-11.26,14C214.22,190,214,190.9,213.84,191.81Z"/><path d="M434.46,224.32V0H0V227.54Q6.9,230,14.17,232A234.35,234.35,0,0,0,76,240.09q4.6,0,9.15-.17a110.59,110.59,0,0,0,119.89,25.39,110.81,110.81,0,0,1-49.43-39.06c1.67-.62,3.31-1.27,4.94-1.93ZM186.3,183.89q-.18-1.86-.39-3.81t-.45-3.75q-.24-1.8-.48-3.36t-.48-2.7q-.18,1.14-.48,2.64t-.6,3.18q-.3,1.68-.6,3.51t-.66,3.51q-.78,4-1.68,8.4l-8.76,2q1.8-8.64,3.42-16.74.6-3.48,1.29-7.2t1.29-7.35q.6-3.63,1.08-7t.72-6q.78.06,1.32.06h1.26l2,0,2.4-.09,2.58-.12q.84,4.2,1.5,8.1l1.35,7q.69,3.6,1.23,6.12.24-1.2.54-2.79t.66-3.33q.36-1.74.69-3.51t.69-3.51q.84-3.9,1.74-8l7.32-.9q-2,9.18-3.6,17.4-.72,3.54-1.41,7.17t-1.29,7q-.6,3.33-1,6.18t-.66,4.77a13.07,13.07,0,0,0-1.41.27l-2.82.63-3.18.72a18.5,18.5,0,0,0-2.37.66Q186.72,188.21,186.3,183.89ZM14.17,14.18H420.29v196H188.42a136.36,136.36,0,0,0,26-21c.29-1.46.57-2.91.82-4.32q.6-2.88,1.23-6t1-5.34l-5.82.54q-.42,2.28-1,5.28t-1,5.7l-1.32,6.48L199,193.37q1.68-8.4,3.24-16.38.6-3.42,1.26-7.11t1.23-7.29q.57-3.6,1.08-7t.81-6.15q1.38.06,2.55.15l2.31.15q1.14.06,2.31.09t2.55,0q-1,4.26-2,8.52T212.52,167l5.94-.66q.84-4.26,1.5-8.25t1.74-8.25q1.38-.24,3.06-.39l3.12-.27,3.42-.3q-.84,2.7-1.59,5.91t-1.47,6.66q-.72,3.45-1.38,7t-1.2,6.72v0c1.06-1.58,2.09-3.18,3.05-4.8-.39,1.25-.73,2.5-1,3.76a32.17,32.17,0,0,0-.84,7.08,19.55,19.55,0,0,0,.69,5.55,10.8,10.8,0,0,0,1.89,3.78,7.9,7.9,0,0,0,2.82,2.22,8.47,8.47,0,0,0,3.6.75,13.05,13.05,0,0,0,4.92-1.05,20.79,20.79,0,0,0,5.1-3.06,31.73,31.73,0,0,0,4.83-4.86,32.65,32.65,0,0,0,4-6.48,40.28,40.28,0,0,0,2.79-8,39.41,39.41,0,0,0,1.05-9.27,23.84,23.84,0,0,0-.42-4.44,13.1,13.1,0,0,0-1.41-4,7.93,7.93,0,0,0-2.76-2.88,8.28,8.28,0,0,0-4.47-1.11,12.82,12.82,0,0,0-6,1.5,21.69,21.69,0,0,0-5.4,4,34,34,0,0,0-3.36,4,77.13,77.13,0,0,0,5.47-28.33c0-26.2-13.56-50.26-36.19-69.2l-1.85-1.52C172.09,34.56,126.75,19.09,76,19.09a234.35,234.35,0,0,0-61.87,8.12ZM235.8,179.63a23.29,23.29,0,0,1,.3-3.42,24.35,24.35,0,0,1,1-4.05,35.53,35.53,0,0,1,1.65-4.08,18,18,0,0,1,2.25-3.6,10.91,10.91,0,0,1,2.91-2.55,6.82,6.82,0,0,1,3.54-1,2.21,2.21,0,0,1,1.53.51,3.08,3.08,0,0,1,.84,1.23,6.35,6.35,0,0,1,.36,1.56,14.71,14.71,0,0,1,.09,1.56,23.62,23.62,0,0,1-.75,5.58,26.43,26.43,0,0,1-2.13,5.76,15.33,15.33,0,0,1-3.48,4.56,7,7,0,0,1-4.8,1.86,2.52,2.52,0,0,1-1.35-.39,3.94,3.94,0,0,1-1.05-.93A4.19,4.19,0,0,1,236,181,4.36,4.36,0,0,1,235.8,179.63ZM114.57,86.51a1.55,1.55,0,0,0,1.35.78,3,3,0,0,0,1.5-.51A6.85,6.85,0,0,0,119,85.46a11.58,11.58,0,0,0,1.32-1.83,7.35,7.35,0,0,0,.84-2L128,84.35a30.27,30.27,0,0,1-3.21,5.73,23.19,23.19,0,0,1-3.72,4.08,14.19,14.19,0,0,1-3.93,2.43,10.45,10.45,0,0,1-3.84.78,6.93,6.93,0,0,1-3.39-.84A7.77,7.77,0,0,1,107.22,94a14.14,14.14,0,0,1-1.83-4.14,21.44,21.44,0,0,1-.69-5.76A40.53,40.53,0,0,1,106.26,73a36.57,36.57,0,0,1,4.38-9.87,24.59,24.59,0,0,1,6.69-7,14.73,14.73,0,0,1,8.55-2.67,6.6,6.6,0,0,1,2.76.6,6.76,6.76,0,0,1,2.28,1.68,8.11,8.11,0,0,1,1.53,2.64,10.08,10.08,0,0,1,.57,3.48v.75a5.73,5.73,0,0,1-.06.81l-7.86,2.1q-.72-1.5-1.68-1.5a2.91,2.91,0,0,0-2,1.11,15.33,15.33,0,0,0-2.07,2.88,40.55,40.55,0,0,0-2,4q-1,2.19-1.68,4.41t-1.17,4.23a15.67,15.67,0,0,0-.45,3.27A5.21,5.21,0,0,0,114.57,86.51Zm-13.38,23.55a2,2,0,0,0-1.65-.81,2.65,2.65,0,0,0-1.17.36,8,8,0,0,0-1.38.93,5.42,5.42,0,0,0-1.17,1.35,3.15,3.15,0,0,0-.48,1.68,3.59,3.59,0,0,0,.81,2.4,10.44,10.44,0,0,0,2,1.8q1.2.84,2.61,1.71a11.4,11.4,0,0,1,2.61,2.25,11.71,11.71,0,0,1,2,3.45,14.55,14.55,0,0,1,.81,5.25,14.08,14.08,0,0,1-1.29,6.09,14.81,14.81,0,0,1-3.48,4.71,15.5,15.5,0,0,1-5.16,3.06,18.56,18.56,0,0,1-6.39,1.08,10.06,10.06,0,0,1-4.8-1.29A15.22,15.22,0,0,1,80.46,140l4.44-8.7a6.63,6.63,0,0,0,1.26,1.59,9.5,9.5,0,0,0,1.89,1.41,14.21,14.21,0,0,0,2.1,1,5.5,5.5,0,0,0,1.89.39,5.09,5.09,0,0,0,1.5-.24,4.86,4.86,0,0,0,1.44-.72,3.94,3.94,0,0,0,1-1.11,2.74,2.74,0,0,0,.39-1.47,4.34,4.34,0,0,0-.93-2.67,13.4,13.4,0,0,0-2.31-2.34q-1.38-1.11-3-2.25a27.74,27.74,0,0,1-3-2.4,13.57,13.57,0,0,1-2.31-2.82,6.51,6.51,0,0,1-1-3.48,10.06,10.06,0,0,1,1.86-5.82,18.35,18.35,0,0,1,4.65-4.65,24.58,24.58,0,0,1,6.09-3.09,19.13,19.13,0,0,1,6.24-1.14,11.66,11.66,0,0,1,3.06.39,6.51,6.51,0,0,1,2.49,1.26,6.35,6.35,0,0,1,1.68,2.19,7.65,7.65,0,0,1,.63,3.3,9.54,9.54,0,0,1-.15,1.68q-.15.84-.27,1.8l-8.7,2.52q.12-.48.21-1a5.2,5.2,0,0,0,.09-1A4.28,4.28,0,0,0,101.19,110.06ZM76.71,57.56q-.21,2.85-.39,6.21t-.36,7q-.18,3.66-.36,7.2-.3,8.28-.66,17.58-1.8.3-3.6.48l-3.3.54-3.24.54q.24-2,.48-3.9.18-1.68.33-3.36T65.88,87H60.66l-2.4,8.64q-1.32.18-3.12.39l-3.36.39L48,96.89q2.4-8,4.74-15.72l2-6.78q1.05-3.54,2.1-7t2-6.75q1-3.24,1.68-5.94,4.08-.3,8.31-.72t8.25-1.14Q76.92,54.71,76.71,57.56ZM79,80.81q.6-3.48,1.29-7.2t1.29-7.35q.6-3.63,1.08-7t.72-6q.78.06,1.32.06h1.26l2,0q1.2,0,2.4-.09l2.58-.12q.84,4.2,1.5,8.1l1.35,7q.69,3.6,1.23,6.12.24-1.2.54-2.79t.66-3.33q.36-1.74.69-3.51t.69-3.51q.84-3.9,1.74-8l7.32-.9q-2,9.18-3.6,17.4-.72,3.54-1.41,7.17t-1.29,7q-.6,3.33-1,6.18t-.66,4.77a13.07,13.07,0,0,0-1.41.27l-2.82.63-3.18.72A18.5,18.5,0,0,0,90.9,97q-.36-4.8-.78-9.12-.18-1.86-.39-3.81t-.45-3.75Q89,78.53,88.8,77t-.48-2.7q-.18,1.14-.48,2.64t-.6,3.18q-.3,1.68-.6,3.51T86,87.11q-.78,4-1.68,8.4l-8.76,2Q77.34,88.91,79,80.81Zm-20.4,31a35.05,35.05,0,0,1,4.62-5.85,21.69,21.69,0,0,1,5.4-4,12.82,12.82,0,0,1,6-1.5,8.28,8.28,0,0,1,4.47,1.11,7.93,7.93,0,0,1,2.76,2.88,13.1,13.1,0,0,1,1.41,4,23.84,23.84,0,0,1,.42,4.44,39.41,39.41,0,0,1-1,9.27,40.28,40.28,0,0,1-2.79,8,32.65,32.65,0,0,1-4,6.48,31.73,31.73,0,0,1-4.83,4.86,20.79,20.79,0,0,1-5.1,3.06,13.05,13.05,0,0,1-4.92,1.05,8.47,8.47,0,0,1-3.6-.75,7.9,7.9,0,0,1-2.82-2.22,10.8,10.8,0,0,1-1.89-3.78,19.55,19.55,0,0,1-.69-5.55,32.17,32.17,0,0,1,.84-7.08A50.55,50.55,0,0,1,55,118.73,40.66,40.66,0,0,1,58.56,111.77ZM129.9,78.11a50.55,50.55,0,0,1,2.28-7.38,40.66,40.66,0,0,1,3.54-7,35.05,35.05,0,0,1,4.62-5.85,21.69,21.69,0,0,1,5.4-4.05,12.82,12.82,0,0,1,6-1.5,8.28,8.28,0,0,1,4.47,1.11A7.93,7.93,0,0,1,159,56.36a13.1,13.1,0,0,1,1.41,4,23.84,23.84,0,0,1,.42,4.44,39.41,39.41,0,0,1-1.05,9.27A40.28,40.28,0,0,1,157,82a32.65,32.65,0,0,1-4.05,6.48,31.73,31.73,0,0,1-4.83,4.86,20.79,20.79,0,0,1-5.1,3.06,13.05,13.05,0,0,1-4.92,1,8.47,8.47,0,0,1-3.6-.75,7.9,7.9,0,0,1-2.82-2.22,10.8,10.8,0,0,1-1.89-3.78,19.55,19.55,0,0,1-.69-5.55A32.17,32.17,0,0,1,129.9,78.11ZM28.11,76q1.71-10.65,3.27-21.45,3.12-.66,6.48-1.17a46.34,46.34,0,0,1,7-.51,15.2,15.2,0,0,1,3.18.36,8.37,8.37,0,0,1,3.06,1.32,8,8,0,0,1,2.31,2.52,7.64,7.64,0,0,1,.93,4,11.93,11.93,0,0,1-.75,4.26,15.48,15.48,0,0,1-1.92,3.6A13.64,13.64,0,0,1,49,71.66a12,12,0,0,1-3.06,1.77,8,8,0,0,1,1.62,1.2,10.88,10.88,0,0,1,1.56,1.83A9.26,9.26,0,0,1,50.25,79a10.84,10.84,0,0,1,.45,3.24,10.3,10.3,0,0,1-1,4.56,13.73,13.73,0,0,1-2.76,3.81,18.84,18.84,0,0,1-4.05,3A29.45,29.45,0,0,1,38,95.72,33.26,33.26,0,0,1,32.79,97a30.88,30.88,0,0,1-5.13.45,22.47,22.47,0,0,1-4.14-.36A199.43,199.43,0,0,0,28.11,76ZM27,129.11q.6-3.3,1.26-6.87t1.26-7q.6-3.48,1.17-6.66t.93-5.76q2.58-.48,5.22-.9a34.32,34.32,0,0,1,5.4-.42,13.26,13.26,0,0,1,5.49,1,9.58,9.58,0,0,1,3.66,2.82,11.8,11.8,0,0,1,2.07,4.2,19.16,19.16,0,0,1,.66,5.1,26.73,26.73,0,0,1-.9,6.63,39.36,39.36,0,0,1-2.52,7,37.41,37.41,0,0,1-4,6.6,29.91,29.91,0,0,1-5.37,5.52,26.58,26.58,0,0,1-6.57,3.81,20.1,20.1,0,0,1-7.59,1.44,15.76,15.76,0,0,1-1.68-.09q-.84-.09-1.68-.21Q25.44,137,27,129.11Zm47.07,62.22a14.27,14.27,0,0,1-4.41,2.28,15.84,15.84,0,0,1-4.68.72,9.42,9.42,0,0,1-2.82-.45,8,8,0,0,1-2.58-1.35,7.3,7.3,0,0,1-1.89-2.28,6.23,6.23,0,0,1-.66-2.1q-1,1.26-2,2.46Q54,192,52.77,193.52t-2.13,2.61q-1.2-1.68-2.49-3.42t-2.49-3.54l-.3-.48a23,23,0,0,1-5.55,3.57,13.29,13.29,0,0,1-5.37,1.23,8.47,8.47,0,0,1-3.6-.75A7.9,7.9,0,0,1,28,190.52a10.8,10.8,0,0,1-1.89-3.78,19.55,19.55,0,0,1-.69-5.55,32.17,32.17,0,0,1,.84-7.08,50.55,50.55,0,0,1,2.28-7.38,40.66,40.66,0,0,1,3.54-7,35.05,35.05,0,0,1,4.62-5.85,21.69,21.69,0,0,1,5.4-4,12.82,12.82,0,0,1,6-1.5,8.28,8.28,0,0,1,4.47,1.11,7.93,7.93,0,0,1,2.76,2.88,13.1,13.1,0,0,1,1.41,4,23.84,23.84,0,0,1,.42,4.44,38.65,38.65,0,0,1-1.44,10.83A40.41,40.41,0,0,1,52,180.53L57,186.35c0-.1,0-.2,0-.3q.24-2.46.78-5.94t1.14-7.26q.6-3.78,1.32-7.59t1.29-6.93q.57-3.12,1-5.19t.54-2.55l3-.3q1.74-.18,3.24-.3l3.66-.36q-1.56,7.26-2.76,13.14-.54,2.52-1,5t-1,4.62l-.78,3.63-.54,2.49q-.21,1-.48,2.43a14.9,14.9,0,0,0-.27,2.67,2.55,2.55,0,0,0,.48,1.59,1.45,1.45,0,0,0,1.2.63,2.07,2.07,0,0,0,1.68-.81,7.31,7.31,0,0,0,1.11-1.95,12.1,12.1,0,0,0,.66-2.31q.21-1.17.39-1.83.36-1.74.81-3.87t.9-4.44q.45-2.31.9-4.71t.87-4.68q1-5.28,2-10.92l9.12-.6q-.6,3.12-1.08,5.7t-1,5.88q-.57,3.3-1.29,6.87l-1.41,7q-.69,3.45-1.35,6.33L79.2,185l-1.53,2.4A15,15,0,0,1,74.07,191.33Zm28.23.72-3.3.54-3.24.54q.24-2,.48-3.9.18-1.68.33-3.36t.27-2.88H91.62l-2.4,8.64L86.1,192l-3.36.39-3.78.48q2.4-8,4.74-15.72l2-6.78,2.1-7q1.05-3.51,2-6.75t1.68-5.94q4.08-.3,8.31-.72t8.25-1.14q-.18,1.92-.39,4.77t-.39,6.21q-.18,3.36-.36,7t-.36,7.2q-.3,8.28-.66,17.58Q104.1,191.87,102.3,192.05ZM124,188.3a26.58,26.58,0,0,1-6.57,3.81,20.1,20.1,0,0,1-7.59,1.44,15.76,15.76,0,0,1-1.68-.09q-.84-.09-1.68-.21,1.62-8.28,3.18-16.14.6-3.3,1.26-6.87t1.26-7.05q.6-3.48,1.17-6.66t.93-5.76q2.58-.48,5.22-.9a34.32,34.32,0,0,1,5.4-.42,13.26,13.26,0,0,1,5.49,1,9.58,9.58,0,0,1,3.66,2.82,11.8,11.8,0,0,1,2.07,4.2,19.16,19.16,0,0,1,.66,5.1,26.73,26.73,0,0,1-.9,6.63,39.36,39.36,0,0,1-2.52,7,37.41,37.41,0,0,1-4,6.6A29.91,29.91,0,0,1,124,188.3Zm27,4q-1.2-3.84-2.16-7.2-.42-1.38-.84-2.85t-.78-2.79q-.36-1.32-.6-2.37a13.53,13.53,0,0,1-.3-1.71l-.78.24q-.36,1.92-.87,4.5t-.93,5q-.54,2.82-1.08,5.7l-9.72,2.52q1.62-8,3.12-15.6.54-3.24,1.2-6.75t1.23-7q.57-3.45,1.08-6.66t.81-5.85a42.52,42.52,0,0,1,7.38-1.59,61.48,61.48,0,0,1,7.86-.51,11.78,11.78,0,0,1,3.87.54,5.59,5.59,0,0,1,2.4,1.53,5.73,5.73,0,0,1,1.23,2.31,11.17,11.17,0,0,1,.36,2.94,13.69,13.69,0,0,1-.84,4.71,19.74,19.74,0,0,1-2.25,4.38,22.47,22.47,0,0,1-3.24,3.78,17.41,17.41,0,0,1-3.93,2.79q1.08,2.4,2.31,5.25t2.31,5.43q1.2,3,2.46,6Zm9.87-4.83q.63-3.15,1.29-6.6t1.26-7q.6-3.54,1.14-6.84,1.26-7.68,2.52-15.78l9.36-1.5q-1.38,8-2.7,15.78-.54,3.3-1.11,6.84t-1.14,7q-.57,3.48-1,6.75t-.9,5.91q-.54,0-2.13.15t-3.27.36l-3,.39a11.54,11.54,0,0,0-1.47.24Q160.2,190.61,160.83,187.46Z"/><path d="M285,153.29a6.35,6.35,0,0,0-1.68-2.19,6.51,6.51,0,0,0-2.49-1.26,11.66,11.66,0,0,0-3.06-.39,19.13,19.13,0,0,0-6.24,1.14,24.58,24.58,0,0,0-6.09,3.09,18.35,18.35,0,0,0-4.65,4.65,10.06,10.06,0,0,0-1.86,5.82,6.51,6.51,0,0,0,1,3.48,13.57,13.57,0,0,0,2.31,2.82,27.74,27.74,0,0,0,3,2.4q1.62,1.14,3,2.25a13.4,13.4,0,0,1,2.31,2.34,4.34,4.34,0,0,1,.93,2.67,2.74,2.74,0,0,1-.39,1.47,3.94,3.94,0,0,1-1.05,1.11,4.86,4.86,0,0,1-1.44.72,5.09,5.09,0,0,1-1.5.24,5.5,5.5,0,0,1-1.89-.39,14.21,14.21,0,0,1-2.1-1,9.5,9.5,0,0,1-1.89-1.41,6.63,6.63,0,0,1-1.26-1.59l-4.44,8.7a15.22,15.22,0,0,0,4.62,4.11,10.06,10.06,0,0,0,4.8,1.29,18.56,18.56,0,0,0,6.39-1.08,15.5,15.5,0,0,0,5.16-3.06,14.81,14.81,0,0,0,3.48-4.71,14.08,14.08,0,0,0,1.29-6.09,14.55,14.55,0,0,0-.81-5.25,11.71,11.71,0,0,0-2-3.45,11.4,11.4,0,0,0-2.61-2.25q-1.41-.87-2.61-1.71a10.44,10.44,0,0,1-2-1.8,3.59,3.59,0,0,1-.81-2.4,3.15,3.15,0,0,1,.48-1.68,5.42,5.42,0,0,1,1.17-1.35,8,8,0,0,1,1.38-.93,2.65,2.65,0,0,1,1.17-.36,2,2,0,0,1,1.65.81,4.28,4.28,0,0,1,.63,2.61,5.2,5.2,0,0,1-.09,1q-.09.48-.21,1l8.7-2.52q.12-1,.27-1.8a9.54,9.54,0,0,0,.15-1.68A7.65,7.65,0,0,0,285,153.29Z"/></g></g></svg>